<?xml version="1.0" encoding="UTF-8" standalone="no"?>
<svg xmlns="http://www.w3.org/2000/svg" width="99.68146514892578mm" height="120.88018798828125mm" viewBox="0 0 99.68146514892578 120.88018798828125">
<!-- CAM Setup Info:
Work Area Width: 99.68146514892578mm
Work Area Height: 120.88018798828125mm
Work Area Too Small?: false
Stock box Upper Right: 47.84073257446289,58.440093994140625
Stock box Lower Left: -47.84073257446289,-58.440093994140625
Origin: 0,0
Selected Colors: #0000d3, #02abea, #1fb714, #dd0907, #f20884, #fbf305
-->
<g id="global-translation-frame" transform="translate(49.841, 60.44) scale(1, -1)">
<g id="operation-1">
    <path d="M 23.023 19.588
             L 23.421 19.985
             M 22.725 19.886
             A 0.328 0.328 0 0 1 22.493 19.982
             A 0.328 0.328 0 0 1 22.261 19.886
             L 21.93 19.554
             A 0.328 0.328 0 0 1 21.833 19.322
             A 0.328 0.328 0 0 1 21.93 19.09
             L 22.228 18.792
             L 23.023 19.588
             L 22.725 19.886
             M 21.606 20.21
             L 21.167 20.648
             L 21.035 20.516
             A 0.375 0.375 0 0 1 21.035 19.985
             A 0.375 0.375 0 0 1 21.565 19.985
             L 21.697 20.118
             L 21.606 20.21
             M 21.697 20.118
             L 21.896 20.317
             A 0.281 0.281 0 0 1 21.979 20.516
             A 0.281 0.281 0 0 1 21.896 20.714
             L 21.565 21.046
             M 20.185 21.541
             A 1.583 1.583 0 0 1 20.438 22.04
             A 0.233 0.233 0 0 1 20.242 22.305
             A 0.233 0.233 0 0 1 20.173 22.305
             A 1.583 1.583 0 0 1 19.112 21.245
             A 0.233 0.233 0 0 1 19.308 20.98
             A 0.233 0.233 0 0 1 19.377 20.98
             A 1.583 1.583 0 0 1 20.185 21.541
             M 19.444 23.167
             L 18.25 21.974
             L 18.781 21.974
             M 17.553 20.974
             L 17.288 21.239
             A 0.375 0.375 0 0 1 16.757 21.239
             L 16.625 21.106
             A 0.375 0.375 0 0 1 16.625 20.576
             M 16.757 20.444
             L 16.625 20.576
             A 0.375 0.375 0 0 1 16.094 20.576
             A 0.375 0.375 0 0 1 15.985 20.311
             A 0.375 0.375 0 0 1 16.095 20.046
             L 16.36 19.781
             M 17.685 19.25
             L 18.216 20.311
             L 17.155 19.781
             M 19.842 18.685
             L 19.641 18.886
             A 0.328 0.328 0 0 1 19.409 18.982
             A 0.328 0.328 0 0 1 19.177 18.886
             L 18.846 18.554
             A 0.328 0.328 0 0 1 18.846 18.09
             L 19.144 17.792
             L 19.939 18.587
             L 19.842 18.685
             M 19.939 18.588
             L 20.337 18.985
             M 20.337 18.19
             L 19.542 17.394
             M 19.21 17.063
             L 19.144 16.997
             M 20.072 17.129
             L 19.939 16.997
             L 20.337 16.599
             L 21.133 17.394
             M 20.337 15.803
             L 20.669 15.472
             A 0.469 0.469 0 0 1 21 15.334
             A 0.469 0.469 0 0 1 21.331 15.472
             L 21.862 16.002
             A 0.469 0.469 0 0 1 21.862 16.665
             L 21.53 16.996
             L 20.868 16.334
             L 21.066 16.135
             M 22.424 14.512
             L 22.624 14.312
             A 0.328 0.328 0 0 1 22.856 14.216
             A 0.328 0.328 0 0 1 23.088 14.312
             L 23.42 14.643
             A 0.328 0.328 0 0 1 23.516 14.875
             A 0.328 0.328 0 0 1 23.42 15.107
             L 23.121 15.405
             L 22.326 14.61
             L 22.424 14.512
             M 22.326 14.61
             L 21.928 14.212
             M 23.951 17.068
             L 23.819 17.201
             L 23.421 16.803
             M 23.819 17.201
             L 23.554 17.466
             M 23.156 17.864
             L 23.686 18.925
             M 24.349 19.057
             L 24.216 19.19
             L 22.626 18.394
             M 24.614 17.997
             L 23.819 17.201
             M 24.614 16.406
             A 0.375 0.375 0 0 1 25.145 16.406
             L 25.41 16.671
             A 0.375 0.375 0 0 1 25.41 17.201
             A 0.375 0.375 0 0 1 24.88 17.201
             L 24.614 16.936
             A 0.375 0.375 0 0 1 24.614 16.406
             M 26.338 16.273
             L 25.542 15.477
             M 25.542 15.477
             L 25.277 15.743
             M 25.675 15.345
             L 25.542 15.477
             L 25.145 15.08
             M 26.338 14.682
             A 0.375 0.375 0 0 1 26.603 14.572
             A 0.375 0.375 0 0 1 26.868 14.682
             L 27.133 14.947
             A 0.375 0.375 0 0 1 27.133 15.477
             A 0.375 0.375 0 0 1 26.603 15.477
             L 26.338 15.212
             A 0.375 0.375 0 0 1 26.338 14.682
             M 27.133 14.152
             L 27.001 14.019
             L 27.399 13.621
             L 28.194 14.417
             M 28.632 12.918
             L 28.393 13.157
             A 0.469 0.469 0 0 1 27.73 13.157
             A 0.469 0.469 0 0 1 27.73 12.494
             L 28.062 12.163
             L 28.724 12.826
             L 28.632 12.918
             M 28.724 12.826
             L 29.255 13.356
             M 27.43 11.097
             L 26.237 9.903
             M 26.569 9.572
             L 26.237 9.903
             M 26.237 9.903
             L 25.906 10.235
             M 25.641 11.561
             L 25.508 11.428
             L 25.906 11.03
             L 26.701 11.826
             M 24.779 11.494
             L 24.712 11.428
             M 25.416 13.111
             L 25.21 13.317
             A 0.328 0.328 0 0 1 24.746 13.317
             L 24.414 12.986
             A 0.328 0.328 0 0 1 24.318 12.754
             A 0.328 0.328 0 0 1 24.414 12.522
             L 24.712 12.224
             L 25.508 13.019
             L 25.416 13.111
             M 25.508 13.019
             L 25.906 13.417
             M 25.906 12.621
             L 25.11 11.826
             M 24.002 13.377
             A 0.375 0.375 0 0 1 24.049 13.417
             L 24.315 13.682
             A 0.375 0.375 0 0 1 24.314 14.212
             A 0.375 0.375 0 0 1 23.784 14.212
             L 23.519 13.947
             A 0.375 0.375 0 0 1 23.519 13.417
             A 0.375 0.375 0 0 1 24.002 13.377" fill="none" stroke="#0000d3" stroke-width="0.1"/>
</g>
<g id="operation-2">
    <path d="M 2.809 50.12
             A 3.097 3.097 0 0 1 7.181 50.388
             A 3.097 3.097 0 0 1 6.914 54.76
             A 3.097 3.097 0 0 1 2.541 54.493
             A 3.097 3.097 0 0 1 2.809 50.12
             M -1.034 43.846
             A 2.535 2.535 0 0 1 -3.89 46.013
             A 2.535 2.535 0 0 1 -6.057 43.157
             A 2.535 2.535 0 0 1 -3.202 40.99
             A 2.535 2.535 0 0 1 -1.034 43.846
             M 8.403 33.124
             A 2.535 2.535 0 0 1 5.305 31.321
             A 2.535 2.535 0 0 1 7.109 28.222
             A 2.535 2.535 0 0 1 10.207 30.026
             A 2.535 2.535 0 0 1 8.403 33.124
             M 15.919 36.524
             A 3.097 3.097 0 0 1 19.251 39.368
             A 3.097 3.097 0 0 1 16.406 42.7
             A 3.097 3.097 0 0 1 13.075 39.855
             A 3.097 3.097 0 0 1 15.919 36.524
             M 22.78 23.578
             A 2.035 2.035 0 0 1 25.506 22.655
             A 2.035 2.035 0 0 1 26.428 25.381
             A 2.035 2.035 0 0 1 23.702 26.304
             A 2.035 2.035 0 0 1 22.78 23.578
             M 28.701 6.939
             A 2.035 2.035 0 0 1 25.922 6.195
             A 2.035 2.035 0 0 1 26.666 3.415
             A 2.035 2.035 0 0 1 29.446 4.16
             A 2.035 2.035 0 0 1 28.701 6.939
             M 37.563 8.681
             A 2.035 2.035 0 0 1 40.402 9.155
             A 2.035 2.035 0 0 1 39.929 11.994
             A 2.035 2.035 0 0 1 37.09 11.52
             A 2.035 2.035 0 0 1 37.563 8.681
             M 36.51 -11.466
             A 2.035 2.035 0 0 1 37.255 -14.245
             A 2.035 2.035 0 0 1 40.035 -13.501
             A 2.035 2.035 0 0 1 39.29 -10.721
             A 2.035 2.035 0 0 1 36.51 -11.466
             M 23.351 -22.526
             A 2.035 2.035 0 0 1 22.58 -25.298
             A 2.035 2.035 0 0 1 25.353 -26.069
             A 2.035 2.035 0 0 1 26.123 -23.296
             A 2.035 2.035 0 0 1 23.351 -22.526
             M 13.146 -26.071
             A 2.035 2.035 0 0 1 13.917 -23.298
             A 2.035 2.035 0 0 1 11.144 -22.527
             A 2.035 2.035 0 0 1 10.373 -25.3
             A 2.035 2.035 0 0 1 13.146 -26.071
             M -1.936 -31.856
             A 2.035 2.035 0 0 1 -3.735 -34.102
             A 2.035 2.035 0 0 1 -1.489 -35.901
             A 2.035 2.035 0 0 1 0.31 -33.655
             A 2.035 2.035 0 0 1 -1.936 -31.856
             M -14.152 -36.972
             A 3.097 3.097 0 0 1 -15.792 -32.91
             A 3.097 3.097 0 0 1 -19.854 -34.551
             A 3.097 3.097 0 0 1 -18.213 -38.612
             A 3.097 3.097 0 0 1 -14.152 -36.972
             M -9.119 -46.22
             A 1.598 1.598 0 0 1 -11.301 -45.636
             A 1.598 1.598 0 0 1 -11.886 -47.818
             A 1.598 1.598 0 0 1 -9.704 -48.403
             A 1.598 1.598 0 0 1 -9.119 -46.22
             M -1.342 -47.843
             A 3.747 3.747 0 0 1 -4.708 -51.937
             A 3.747 3.747 0 0 1 -0.614 -55.303
             A 3.747 3.747 0 0 1 2.752 -51.208
             A 3.747 3.747 0 0 1 -1.342 -47.843
             M 18.262 -40.569
             A 2.035 2.035 0 0 1 18.011 -43.436
             A 2.035 2.035 0 0 1 20.878 -43.687
             A 2.035 2.035 0 0 1 21.129 -40.82
             A 2.035 2.035 0 0 1 18.262 -40.569
             M 36.939 -35.565
             A 2.035 2.035 0 0 1 39.585 -34.433
             A 2.035 2.035 0 0 1 38.453 -31.787
             A 2.035 2.035 0 0 1 35.807 -32.919
             A 2.035 2.035 0 0 1 36.939 -35.565
             M 43.177 -44.301
             A 1.598 1.598 0 0 1 43.246 -46.56
             A 1.598 1.598 0 0 1 45.504 -46.491
             A 1.598 1.598 0 0 1 45.436 -44.233
             A 1.598 1.598 0 0 1 43.177 -44.301
             M 15.844 -6.671
             A 2.035 2.035 0 0 1 18.678 -7.171
             A 2.035 2.035 0 0 1 19.178 -4.336
             A 2.035 2.035 0 0 1 16.344 -3.837
             A 2.035 2.035 0 0 1 15.844 -6.671
             M 1.834 6.483
             A 2.035 2.035 0 0 1 3.933 8.451
             A 2.035 2.035 0 0 1 1.965 10.551
             A 2.035 2.035 0 0 1 -0.135 8.582
             A 2.035 2.035 0 0 1 1.834 6.483
             M -8.656 -8.701
             A 2.035 2.035 0 0 1 -11.487 -9.219
             A 2.035 2.035 0 0 1 -10.969 -12.05
             A 2.035 2.035 0 0 1 -8.138 -11.532
             A 2.035 2.035 0 0 1 -8.656 -8.701" fill="none" stroke="#02abea" stroke-width="0.1"/>
</g>
<g id="operation-3">
    <path d="M -26.592 -6.432
             A 2.065 2.065 0 0 0 -28.91 -8.208
             A 2.065 2.065 0 0 0 -30.432 -7.187
             L -36.371 3.192
             A 3.065 3.065 0 0 0 -36.749 5.12
             L -33.572 28.888
             A 4.065 4.065 0 0 0 -32.031 31.565
             L 1.15 57.237
             A 6.065 6.065 0 0 0 9.381 56.484
             A 6.065 6.065 0 0 0 9.658 56.151
             A 6.065 6.065 0 0 0 10.834 51.387
             A 6.065 6.065 0 0 0 8.099 47.312
             L 6.041 46.012
             A 5.935 5.935 0 0 1 3.387 42.139
             A 7.065 7.065 0 0 0 0.226 37.528
             A 7.065 7.065 0 0 0 -5.295 36.657
             A 5.935 5.935 0 0 1 -9.934 35.925
             L -24.547 26.697
             A 3.935 3.935 0 0 1 -26.29 24.214
             L -30.341 5.771
             A 2.935 2.935 0 0 1 -30.228 4.127
             L -26.702 -5.447
             A 2.065 2.065 0 0 0 -26.592 -6.432
             M -25.182 -5.725
             L -22.271 16.06
             A 4.065 4.065 0 0 0 -20.729 18.737
             L 2.012 36.331
             L 12.452 44.409
             A 6.065 6.065 0 0 0 20.96 43.323
             A 6.065 6.065 0 0 0 22.136 38.559
             A 6.065 6.065 0 0 0 19.401 34.484
             L 17.343 33.184
             A 5.935 5.935 0 0 1 14.688 29.311
             A 7.065 7.065 0 0 0 11.528 24.7
             A 7.065 7.065 0 0 0 6.006 23.828
             A 5.935 5.935 0 0 1 1.368 23.097
             L -13.246 13.869
             A 3.935 3.935 0 0 1 -14.988 11.386
             L -19.039 -7.057
             A 2.935 2.935 0 0 1 -18.926 -8.701
             L -15.4 -18.276
             A 2.065 2.065 0 0 0 -16.624 -20.927
             A 2.065 2.065 0 0 0 -19.13 -20.015
             L -25.069 -9.636
             A 3.065 3.065 0 0 0 -25.447 -7.708
             L -25.182 -5.725
             M -1.391 3.422
             A 6.065 6.065 0 0 0 -3.196 11.807
             A 6.065 6.065 0 0 0 -1.589 13.478
             L 21.116 29.441
             A 6.065 6.065 0 0 0 28.892 28.768
             L 43.035 14.626
             A 6.065 6.065 0 0 0 44.81 10.212
             L 44.336 -12.609
             A 6.065 6.065 0 0 0 38.147 -18.547
             A 6.065 6.065 0 0 0 32.779 -15.052
             L 27.911 -4.645
             A 14.159 14.159 0 0 1 13.868 3.463
             L 2.421 2.474
             A 6.065 6.065 0 0 0 -1.391 3.422
             M -2.041 -19.671
             L -11.893 -16.072
             A 6.065 6.065 0 0 0 -15.509 -8.295
             A 6.065 6.065 0 0 0 -10.877 -4.405
             L 16.446 0.467
             A 6.065 6.065 0 0 0 23.21 -3.429
             L 30.051 -22.223
             A 6.065 6.065 0 0 0 26.426 -29.997
             A 6.065 6.065 0 0 0 24.353 -30.362
             L 12.146 -30.364
             A 6.065 6.065 0 0 0 6.716 -27.003
             A 14.159 14.159 0 0 1 -1.101 -20.014
             L -2.041 -19.671
             M -1.27 -40.555
             L -3.905 -39.533
             A 6.065 6.065 0 0 0 -7.367 -31.686
             A 6.065 6.065 0 0 0 -4.161 -28.33
             A 6.065 6.065 0 0 0 0.48 -28.223
             L 16.991 -34.624
             A 5.935 5.935 0 0 1 21.644 -34.469
             L 35.133 -28.179
             A 6.065 6.065 0 0 0 43.193 -31.113
             A 6.065 6.065 0 0 0 40.259 -39.173
             L 22.133 -47.625
             A 6.065 6.065 0 0 0 17.378 -47.783
             L -1.27 -40.555
             M -3.635 -46.683
             A 5.565 5.565 0 0 0 0.549 -46.221
             L 16.916 -50.889
             A 3.435 3.435 0 0 1 19.033 -50.814
             L 22.314 -49.62
             L 43.121 -42.046
             A 3.565 3.565 0 0 0 47.691 -44.177
             A 3.565 3.565 0 0 0 45.56 -48.746
             L 19.339 -58.29
             A 3.565 3.565 0 0 0 17.866 -58.496
             L -1.374 -57.124
             A 5.565 5.565 0 0 0 -6.529 -51.177
             A 5.565 5.565 0 0 0 -3.635 -46.683
             M -6.942 -46.845
             A 3.565 3.565 0 0 0 -10.328 -50.58
             A 3.565 3.565 0 0 0 -13.189 -49.362
             L -21.574 -39.747
             A 6.065 6.065 0 0 0 -21.838 -39.422
             L -45.955 -7.574
             A 4.065 4.065 0 0 0 -46.772 -5.376
             L -47.902 12.476
             A 2.065 2.065 0 0 0 -45.971 14.668
             A 2.065 2.065 0 0 0 -43.86 13.189
             L -39.346 -2.167
             A 3.935 3.935 0 0 1 -38.455 -3.734
             L -12.557 -31.635
             A 6.065 6.065 0 0 0 -11.265 -33.795
             L -7.13 -45.864
             A 3.565 3.565 0 0 0 -6.942 -46.845" fill="none" stroke="#1fb714" stroke-width="0.1"/>
</g>
</g>
</svg>
